<mxfile host="app.diagrams.net" modified="2023-05-08T09:24:39.698Z" agent="Mozilla/5.0 (Windows NT 10.0; Win64; x64) AppleWebKit/537.36 (KHTML, like Gecko) Chrome/112.0.0.0 Safari/537.36 Edg/112.0.1722.68" etag="upzFrQLkqB-a1Sc3epqs" version="21.2.4" type="github" pages="2">
  <diagram name="第 1 页" id="PvdERtDhD3cdv1J3SlUo">
    <mxGraphModel dx="794" dy="477" grid="1" gridSize="10" guides="1" tooltips="1" connect="1" arrows="1" fold="1" page="1" pageScale="1" pageWidth="827" pageHeight="1169" math="0" shadow="0">
      <root>
        <mxCell id="0" />
        <mxCell id="1" parent="0" />
        <mxCell id="FGcbg1sgzswN6ie_4phd-1" value="测试用" style="rounded=0;whiteSpace=wrap;html=1;" parent="1" vertex="1">
          <mxGeometry x="210" y="90" width="120" height="60" as="geometry" />
        </mxCell>
        <mxCell id="6aSn1k1ad_bpcKxzjKRN-2" style="edgeStyle=orthogonalEdgeStyle;rounded=0;orthogonalLoop=1;jettySize=auto;html=1;" edge="1" parent="1" source="6aSn1k1ad_bpcKxzjKRN-1">
          <mxGeometry relative="1" as="geometry">
            <mxPoint x="340" y="120" as="targetPoint" />
          </mxGeometry>
        </mxCell>
        <mxCell id="6aSn1k1ad_bpcKxzjKRN-1" value="asdasdas" style="rounded=1;whiteSpace=wrap;html=1;" vertex="1" parent="1">
          <mxGeometry x="460" y="90" width="120" height="60" as="geometry" />
        </mxCell>
      </root>
    </mxGraphModel>
  </diagram>
  <diagram id="lyqJUsP07Oaeu16BDABU" name="第 2 页">
    <mxGraphModel dx="794" dy="477" grid="1" gridSize="10" guides="1" tooltips="1" connect="1" arrows="1" fold="1" page="1" pageScale="1" pageWidth="827" pageHeight="1169" math="0" shadow="0">
      <root>
        <mxCell id="0" />
        <mxCell id="1" parent="0" />
        <mxCell id="jnnZMpS3Jkwob2hPU0Bd-1" value="第二页&lt;br&gt;" style="whiteSpace=wrap;html=1;aspect=fixed;" vertex="1" parent="1">
          <mxGeometry x="380" y="240" width="80" height="80" as="geometry" />
        </mxCell>
      </root>
    </mxGraphModel>
  </diagram>
</mxfile>
